<?xml version="1.0" encoding="utf-8"?>
<!-- Generator: Adobe Illustrator 22.1.0, SVG Export Plug-In . SVG Version: 6.00 Build 0)  -->
<svg version="1.1" id="图层_1" xmlns="http://www.w3.org/2000/svg" xmlns:xlink="http://www.w3.org/1999/xlink" x="0px" y="0px"
	 viewBox="0 0 122 94" style="enable-background:new 0 0 122 94;" xml:space="preserve">
<style type="text/css">
	.st0{fill:#31A928;}
</style>
<g>
	<path class="st0" d="M91.6,52.5c-0.1-0.1-0.1-0.1-0.2-0.1c-8.3-2.5-14-10-12.5-20.5c1.2-7.5,8-13.8,16.1-14.4c4.7-0.3,8.9,1,12.6,4
		c7.6,5.9,8.3,16.2,1.4,23c-3.3,3.3-6.5,6.6-9.8,9.9c-4.2,4.3-6,9.6-6.6,15.5c-0.1,0.5,0,0.8,0.6,0.8c2.3,0,4.7-0.1,7.1-0.1
		c0.5,0,0.6-0.1,0.7-0.7c0.4-2.5,1.1-4.9,2.3-7.2c1.7-3.3,4.2-6.1,6.8-8.8c2.1-2.1,4.3-4.2,6.3-6.4c5.7-6.4,6.9-13.9,4-21.7
		c-3.6-9.6-11.1-15-21.3-16c-5.2-0.5-10.2,0.5-14.8,3c-6,3.3-10.4,8.1-12.5,14.7c-1.3,4-1.2,8.2-0.6,12.4
		c1.4,9.2,7.1,14.9,15.2,18.7c0.2,0.1,0.6-0.1,0.7-0.3c0.5-0.7,0.9-1.4,1.4-2C89.6,54.9,90.6,53.7,91.6,52.5"/>
	<path class="st0" d="M67.9,26.9c-3.6-10.1-13.4-16.8-24.4-16.8c-4.3,0-8.3,1-12.1,3c-10.7,5.8-16,18.6-12.2,30
		C23.3,55.7,38.2,64,52,58.9c10-3.7,15.9-11.1,17-21.8C69.5,33.6,69.1,30.2,67.9,26.9 M43.9,53.1c-10.7,0-18.3-8.8-18.2-17.9
		c0.1-9.5,8.4-17.9,18.3-17.8c8,0.1,17.9,6.6,17.9,17.8C61.8,45.3,53.4,53,43.9,53.1"/>
	<path class="st0" d="M16.5,60c0-0.3,0.1-0.5,0.1-0.7c0-12.2,0.1-24.4-0.1-36.7c-0.1-3.8-1.9-7-5.2-9.2c-3.1-2-6.7-2.1-10.3-2
		c-0.1,0-0.5,0.3-0.5,0.5c-0.1,2-0.1,3.9,0,5.9c0,0.2,0.3,0.5,0.5,0.5c0.8,0.1,1.6,0.1,2.5,0.2C6,18.6,8,19.9,8.6,21.9
		C8.9,22.7,9,23.7,9,24.5C9,36,9,47.5,9,59v1H16.5z"/>
	<rect x="93" y="78" class="st0" width="8" height="9"/>
	<path class="st0" d="M91.6,52.5c-1,1.2-2,2.5-3,3.7c-0.5,0.7-0.9,1.4-1.4,2c-0.2,0.2-0.5,0.3-0.7,0.3c-8.1-3.8-13.8-9.4-15.2-18.7
		c-0.7-4.2-0.7-8.3,0.6-12.4C74,20.8,78.4,16,84.4,12.7c4.6-2.5,9.6-3.5,14.8-3c10.3,1,17.7,6.4,21.3,16c2.9,7.8,1.7,15.3-4,21.7
		c-2,2.3-4.2,4.4-6.3,6.4c-2.7,2.7-5.1,5.4-6.8,8.8c-1.2,2.3-1.9,4.7-2.3,7.2c-0.1,0.5-0.3,0.7-0.7,0.7c-2.3,0-4.7,0-7.1,0.1
		c-0.6,0-0.6-0.3-0.6-0.8c0.5-5.9,2.3-11.2,6.6-15.5c3.3-3.3,6.5-6.6,9.8-9.9c6.8-6.8,6.2-17.1-1.4-23c-3.7-2.9-7.9-4.2-12.6-4
		c-8.2,0.5-15,6.9-16.1,14.4c-1.6,10.4,4.2,17.9,12.5,20.5C91.5,52.3,91.5,52.4,91.6,52.5"/>
	<path class="st0" d="M67.9,26.9c-3.6-10.1-13.4-16.8-24.4-16.8c-4.3,0-8.3,1-12.1,3c-10.7,5.8-16,18.6-12.2,30
		C23.3,55.7,38.2,64,52,58.9c10-3.7,15.9-11.1,17-21.8C69.5,33.6,69.1,30.2,67.9,26.9 M43.9,53.1c-10.7,0-18.3-8.8-18.2-17.9
		c0.1-9.5,8.4-17.9,18.3-17.8c8,0.1,17.9,6.6,17.9,17.8C61.8,45.3,53.4,53,43.9,53.1"/>
	<path class="st0" d="M16,60H9v-1c0-11.5,0-23,0-34.5c0-0.8-0.1-1.8-0.4-2.6c-0.7-2.1-2.6-3.3-5.1-3.4c-0.8-0.1-1.7-0.1-2.5-0.2
		c-0.2,0-0.5-0.3-0.5-0.5c-0.1-2-0.1-3.9,0-5.9c0-0.2,0.3-0.5,0.5-0.5c3.6-0.1,7.2,0.1,10.3,2.1c3.3,2.1,5.1,5.3,5.2,9.2
		c0.1,12.2,0.1,24.4,0.1,36.7c-0.2,0.1-0.2,0.3-0.2,0.6"/>
	<rect x="93" y="78" class="st0" width="8" height="9"/>
</g>
</svg>
